<svg xmlns="http://www.w3.org/2000/svg" width="720" height="520" viewBox="0 0 720 520" role="img" aria-labelledby="title desc">
  <title id="title">IT operations illustration</title>
  <desc id="desc">Stylized technology operations scene</desc>
  <defs>
    <linearGradient id="opsBg" x1="0" x2="1" y1="0" y2="1">
      <stop offset="0%" stop-color="#0f172a"/>
      <stop offset="100%" stop-color="#134e4a"/>
    </linearGradient>
  </defs>
  <rect width="720" height="520" rx="36" fill="url(#opsBg)"/>
  <circle cx="134" cy="124" r="58" fill="#0ea5e9" opacity="0.18"/>
  <circle cx="592" cy="110" r="76" fill="#f59e0b" opacity="0.14"/>
  <rect x="78" y="118" width="248" height="172" rx="22" fill="#e2e8f0"/>
  <rect x="108" y="150" width="188" height="16" rx="8" fill="#0ea5e9"/>
  <rect x="108" y="184" width="142" height="14" rx="7" fill="#94a3b8"/>
  <rect x="108" y="212" width="172" height="14" rx="7" fill="#94a3b8"/>
  <rect x="108" y="240" width="122" height="14" rx="7" fill="#94a3b8"/>
  <rect x="374" y="102" width="268" height="198" rx="22" fill="#111827"/>
  <rect x="402" y="134" width="96" height="58" rx="14" fill="#1d4ed8"/>
  <rect x="520" y="134" width="96" height="58" rx="14" fill="#0f766e"/>
  <rect x="402" y="214" width="214" height="18" rx="9" fill="#334155"/>
  <rect x="402" y="244" width="178" height="18" rx="9" fill="#334155"/>
  <rect x="122" y="350" width="476" height="100" rx="24" fill="#f8fafc"/>
  <circle cx="202" cy="400" r="26" fill="#f59e0b"/>
  <circle cx="360" cy="400" r="26" fill="#2496ed"/>
  <circle cx="518" cy="400" r="26" fill="#22c55e"/>
  <path d="M228 400h106" stroke="#94a3b8" stroke-width="8" stroke-linecap="round"/>
  <path d="M386 400h106" stroke="#94a3b8" stroke-width="8" stroke-linecap="round"/>
  <text x="360" y="74" text-anchor="middle" font-family="Arial, sans-serif" font-size="28" font-weight="700" fill="#e2e8f0">IT Operations and Cloud Delivery</text>
  <text x="202" y="406" text-anchor="middle" font-family="Arial, sans-serif" font-size="13" font-weight="700" fill="#111827">MONITOR</text>
  <text x="360" y="406" text-anchor="middle" font-family="Arial, sans-serif" font-size="13" font-weight="700" fill="#ffffff">BUILD</text>
  <text x="518" y="406" text-anchor="middle" font-family="Arial, sans-serif" font-size="13" font-weight="700" fill="#111827">DEPLOY</text>
</svg>
