<svg xmlns="http://www.w3.org/2000/svg" width="160" height="160" viewBox="0 0 160 160" role="img" aria-labelledby="title desc">
  <title id="title">Jenkins badge</title>
  <desc id="desc">Circular badge for Jenkins</desc>
  <rect width="160" height="160" rx="36" fill="#fff7f4"/>
  <circle cx="80" cy="80" r="52" fill="#d33833"/>
  <circle cx="80" cy="80" r="37" fill="#ffffff"/>
  <path d="M61 103h38l-8 14H69z" fill="#1f2933"/>
  <rect x="66" y="49" width="28" height="40" rx="10" fill="#f5d0a9"/>
  <path d="M56 58c8-14 40-14 48 0v14H56z" fill="#52271c"/>
  <path d="M59 91h42c-2 12-11 18-21 18s-19-6-21-18z" fill="#ffffff"/>
  <path d="M71 71h6v8h-6zm12 0h6v8h-6z" fill="#1f2933"/>
  <path d="M71 86c4 4 14 4 18 0" stroke="#1f2933" stroke-width="4" stroke-linecap="round" fill="none"/>
  <text x="80" y="138" text-anchor="middle" font-family="Arial, sans-serif" font-size="18" font-weight="700" fill="#d33833">JENKINS</text>
</svg>
